<svg xmlns="http://www.w3.org/2000/svg" viewBox="0 0 24 24">
  <path fill="#FF9900" d="M18.7 12.4c-.1-.3-.3-.5-.6-.5-.2 0-.4.1-.5.3-.1.2-.1.4 0 .6.1.2.3.3.5.3.2 0 .4-.1.5-.3.2-.1.2-.3.1-.4zm-1.6 1.7c-.1.1-.2.3-.2.5s.1.4.2.5c.1.1.3.2.5.2s.4-.1.5-.2c.1-.1.2-.3.2-.5s-.1-.4-.2-.5c-.1-.1-.3-.2-.5-.2s-.4.1-.5.2z"/>
  <path fill="#FF9900" d="M13 2C6.4 2 1 7.4 1 14s5.4 12 12 12 12-5.4 12-12S19.6 2 13 2zm7.5 15.3c-.2.3-.5.5-.9.5H7.4c-.4 0-.7-.2-.9-.5-.2-.3-.2-.7 0-1l6.1-10.5c.2-.3.5-.5.9-.5.4 0 .7.2.9.5l6.1 10.5c.2.3.2.7 0 1z"/>
</svg> 