<svg width="24" height="24" viewBox="0 0 24 24" fill="none" xmlns="http://www.w3.org/2000/svg">
  <path d="M15.9 4.99c.17-.29.1-.66-.17-.84l-1.87-1.23c-.27-.18-.64-.11-.82.16l-.89 1.33C11.13 4.16 10.07 4 9 4c-4.42 0-8 3.58-8 8 0 3.73 2.55 6.86 6 7.76v1.24c-2.27-.18-3-1.18-3-1.18-.3.49.4.72.4.72 1.77.89 4.6.89 4.6.89s2.83 0 4.6-.89c0 0 .7-.23.4-.72 0 0-.73 1-3 1.18v-1.24c3.45-.9 6-4.03 6-7.76 0-1.07-.16-2.13-.41-3.15l1.33-.89c.27-.18.34-.55.16-.82l-1.23-1.87c-.18-.27-.55-.34-.82-.16l-1.33.89c-1.02-.25-2.08-.41-3.15-.41-.35 0-.69.03-1.03.08l1.33-2zM9 6c3.31 0 6 2.69 6 6s-2.69 6-6 6-6-2.69-6-6 2.69-6 6-6z" fill="#4CAF50"/>
  <path d="M9 9v6l5.2-3L9 9z" fill="#4CAF50"/>
</svg> 