<svg xmlns="http://www.w3.org/2000/svg" viewBox="0 0 24 24">
  <path fill="#2196F3" d="M21 13c.6 0 1.1.2 1.5.6.4.4.6.9.6 1.5v4c0 .6-.2 1.1-.6 1.5-.4.4-.9.6-1.5.6h-18c-.6 0-1.1-.2-1.5-.6C1.2 20.1 1 19.6 1 19v-4c0-.6.2-1.1.6-1.5.4-.4.9-.6 1.5-.6h18M3 15v4h4v-4H3m6 0v4h4v-4H9m6 0v4h4v-4h-4"/>
  <path fill="#2196F3" d="M21 3c.6 0 1.1.2 1.5.6.4.4.6.9.6 1.5v4c0 .6-.2 1.1-.6 1.5-.4.4-.9.6-1.5.6h-18c-.6 0-1.1-.2-1.5-.6C1.2 10.1 1 9.6 1 9V5c0-.6.2-1.1.6-1.5C2 3.2 2.5 3 3 3h18M3 5v4h4V5H3m6 0v4h4V5H9m6 0v4h4V5h-4"/>
</svg> 