<svg version="1.1" id="Layer_1" xmlns="http://www.w3.org/2000/svg" xmlns:xlink="http://www.w3.org/1999/xlink" x="0px" y="0px"
	 width="100%" viewBox="0 0 96 96" enable-background="new 0 0 96 96" xml:space="preserve">
<path fill="#DD2C00" opacity="1.000000" stroke="none" 
	d="
M49.000999,86.999237 
	C27.512342,87.967979 14.032295,67.824768 20.325008,49.195038 
	C22.328035,43.265034 27.473082,38.339001 31.426104,33.140411 
	C35.761524,27.438932 41.316299,22.519705 42.517036,14.934528 
	C42.704174,13.752363 42.672337,12.535533 42.831577,9.780954 
	C46.742226,12.003953 50.311012,13.699955 53.520119,15.916664 
	C65.019875,23.860191 74.066963,34.012478 77.892029,47.631966 
	C83.725861,68.403809 70.898186,87.477882 49.000999,86.999237 
M37.854027,52.358250 
	C37.290096,52.968082 36.719604,53.571987 36.163246,54.188652 
	C30.215942,60.780586 29.458683,67.519608 33.859268,74.664062 
	C37.912418,81.244446 46.304314,84.412079 53.843220,82.207260 
	C61.706680,79.907532 67.265762,73.093956 66.859207,65.339203 
	C66.202995,52.822269 58.658890,44.170200 50.746437,36.539577 
	C46.360302,41.933064 42.339497,46.877319 37.854027,52.358250 
z"/>
<path fill="#FE5721" opacity="1.000000" stroke="none" 
	d="
M38.086357,52.089912 
	C42.339497,46.877319 46.360302,41.933064 50.746437,36.539577 
	C58.658890,44.170200 66.202995,52.822269 66.859207,65.339203 
	C67.265762,73.093956 61.706680,79.907532 53.843220,82.207260 
	C46.304314,84.412079 37.912418,81.244446 33.859268,74.664062 
	C29.458683,67.519608 30.215942,60.780586 36.163246,54.188652 
	C36.719604,53.571987 37.290096,52.968082 38.086357,52.089912 
M39.462521,74.694397 
	C40.550861,76.136620 41.433151,77.816093 42.767570,78.974960 
	C46.265194,82.012459 50.615955,81.880470 53.822952,79.377594 
	C56.223122,77.504417 58.577625,73.749939 58.499992,70.899925 
	C58.332668,64.756966 54.642410,59.863678 49.685955,55.876446 
	C46.941994,59.264309 44.011383,62.249924 41.884666,65.727203 
	C40.427486,68.109772 40.089127,71.176620 39.462521,74.694397 
z"/>
<path fill="#FFBF07" opacity="1.000000" stroke="none" 
	d="
M39.356567,74.315979 
	C40.089127,71.176620 40.427486,68.109772 41.884666,65.727203 
	C44.011383,62.249924 46.941994,59.264309 49.685955,55.876446 
	C54.642410,59.863678 58.332668,64.756966 58.499992,70.899925 
	C58.577625,73.749939 56.223122,77.504417 53.822952,79.377594 
	C50.615955,81.880470 46.265194,82.012459 42.767570,78.974960 
	C41.433151,77.816093 40.550861,76.136620 39.356567,74.315979 
z"/>
</svg>