<svg width="24" height="24" viewBox="0 0 24 24" fill="none" xmlns="http://www.w3.org/2000/svg">
  <path d="M20 6h-2.18c.11-.31.18-.65.18-1a3 3 0 0 0-3-3c-1.05 0-2 .5-2.5 1.5l-.5.5-.5-.5A2.99 2.99 0 0 0 9 2a3 3 0 0 0-3 3c0 .35.07.69.18 1H4c-1.11 0-2 .89-2 2v3h20V8c0-1.11-.89-2-2-2zm-3-3c.55 0 1 .45 1 1s-.45 1-1 1-1-.45-1-1 .45-1 1-1zM9 4c.55 0 1 .45 1 1s-.45 1-1 1-1-.45-1-1 .45-1 1-1zm11 15H4v-2h16v2zm0-5H4v-3h5.08L7 12.92 8.42 14l3-3 1-1 1 1 3 3 1.42-1.08L15.92 11H20v3z" fill="#EA4C89"/>
</svg> 