<svg xmlns="http://www.w3.org/2000/svg" viewBox="0 0 24 24"><path fill="url(#gradient)" d="M12 23c-1.1 0-2-.9-2-2v-1c0-.55.45-1 1-1s1 .45 1 1v1c0 .55-.45 1-1 1zm-5-3c-.55 0-1-.45-1-1v-1c0-.55.45-1 1-1s1 .45 1 1v1c0 .55-.45 1-1 1zm10 0c-.55 0-1-.45-1-1v-1c0-.55.45-1 1-1s1 .45 1 1v1c0 .55-.45 1-1 1zm-5-7c-3.31 0-6-2.69-6-6V5c0-.55.45-1 1-1s1 .45 1 1v2c0 2.21 1.79 4 4 4s4-1.79 4-4V5c0-.55.45-1 1-1s1 .45 1 1v2c0 3.31-2.69 6-6 6zm0-10c-.55 0-1-.45-1-1V1c0-.55.45-1 1-1s1 .45 1 1v1c0 .55-.45 1-1 1z"><animate attributeName="opacity" values="1;0.5;1" dur="1s" repeatCount="indefinite"/></path><linearGradient id="gradient" x1="0%" y1="0%" x2="100%" y2="0%"><stop offset="0%" style="stop-color:#ff7e5f;stop-opacity:1"/><stop offset="100%" style="stop-color:#feb47b;stop-opacity:1"/></linearGradient></svg>