<svg width="32" height="32" viewBox="0 0 32 32" fill="none" xmlns="http://www.w3.org/2000/svg">
  <circle cx="16" cy="16" r="16" fill="#000000"/>
  <path d="M23 14c0-3.5-3.1-6.4-7-6.4s-7 2.9-7 6.4c0 2 1.1 3.8 2.8 4.9v3.1h8.4v-3.1c1.7-1.1 2.8-2.9 2.8-4.9z" fill="white"/>
  <path d="M14 13.5c0 .8-.7 1.5-1.5 1.5S11 14.3 11 13.5 11.7 12 12.5 12s1.5.7 1.5 1.5zM21 13.5c0 .8-.7 1.5-1.5 1.5S18 14.3 18 13.5 18.7 12 19.5 12s1.5.7 1.5 1.5z" fill="#000000"/>
  <path d="M15 17c0 .6.4 1 1 1s1-.4 1-1" stroke="#000000" stroke-width="1.5" stroke-linecap="round"/>
  <path d="M13 11l-2-2M19 11l2-2" stroke="white" stroke-width="1.5" stroke-linecap="round"/>
</svg> 